<svg xmlns="http://www.w3.org/2000/svg" viewBox="0 0 536.8 586.9" width="24" height="24">
  <g transform="matrix(.847 0 0 .847 102.75 165.85)" fill="#24ae8f">
    <path d="M-62.5-137.3c32.5 0 58.9 26.4 58.9 58.9v457.7c0 32.5-26.4 58.9-58.9 58.9s-58.9-26.4-58.9-58.9V-78.4c.1-32.5 26.4-58.9 58.9-58.9z"/>
    <path d="M317.8-172.9a58.79 58.79 0 0 1-.4 83.2L-8 232.3a58.79 58.79 0 0 1-83.2-.4 58.79 58.79 0 0 1 .4-83.2l325.4-321.9a58.7 58.7 0 0 1 83.2.3z"/>
    <path d="M317.8 473.4a58.79 58.79 0 0 0-.4-83.2L-8 68.3a58.79 58.79 0 0 0-83.2.4 58.79 58.79 0 0 0 .4 83.2l325.4 321.9a58.6 58.6 0 0 0 83.2-.4z"/>
    <path d="M495.3 226.3c22.9 23.1 22.8 60.4-.2 83.3L323.9 480c-23.1 22.9-60.4 22.8-83.3-.2-22.9-23.1-22.8-60.4.2-83.3L412 226.1c23-22.9 60.3-22.8 83.3.2zM495.3 75c22.9-23.1 22.8-60.4-.2-83.3L323.9-178.7c-23.1-22.9-60.4-22.8-83.3.2-22.9 23.1-22.8 60.4.2 83.3L412 75.2c23.1 22.9 60.4 22.9 83.3-.2z"/>
    <circle cx="282.7" cy="150.7" r="59.4"/>
  </g>
</svg>
